<svg width="32" height="32" viewBox="0 0 32 32" fill="none" xmlns="http://www.w3.org/2000/svg">
<path d="M6.85714 20V17.0526H5C3.89543 17.0526 3 16.1572 3 15.0526V6C3 4.89543 3.89543 4 5 4H19C20.1046 4 21 4.89543 21 6V15.0526C21 16.1572 20.1046 17.0526 19 17.0526H10.7143L6.85714 20Z" fill="url(#paint0_linear_4034_1146)"/>
<g filter="url(#filter0_i_4034_1146)">
<mask id="path-2-inside-1_4034_1146" fill="white">
<path d="M25.1429 28V25.0526H27C28.1046 25.0526 29 24.1572 29 23.0526V14C29 12.8954 28.1046 12 27 12H13C11.8954 12 11 12.8954 11 14V23.0526C11 24.1572 11.8954 25.0526 13 25.0526H21.2857L25.1429 28Z"/>
</mask>
<path d="M25.1429 28V25.0526H27C28.1046 25.0526 29 24.1572 29 23.0526V14C29 12.8954 28.1046 12 27 12H13C11.8954 12 11 12.8954 11 14V23.0526C11 24.1572 11.8954 25.0526 13 25.0526H21.2857L25.1429 28Z" fill="url(#paint1_linear_4034_1146)" fill-opacity="0.64"/>
<path d="M25.1429 25.0526V24.8026H24.8929V25.0526H25.1429ZM25.1429 28L24.9911 28.1986C25.0666 28.2564 25.1684 28.2663 25.2537 28.2241C25.3389 28.182 25.3929 28.0951 25.3929 28H25.1429ZM21.2857 25.0526L21.4375 24.854L21.3703 24.8026H21.2857V25.0526ZM24.8929 25.0526V28H25.3929V25.0526H24.8929ZM25.2946 27.8014L21.4375 24.854L21.1339 25.2513L24.9911 28.1986L25.2946 27.8014ZM21.2857 24.8026H13V25.3026H21.2857V24.8026ZM11.25 23.0526V14H10.75V23.0526H11.25ZM13 12.25H27V11.75H13V12.25ZM28.75 14V23.0526H29.25V14H28.75ZM27 24.8026H25.1429V25.3026H27V24.8026ZM28.75 23.0526C28.75 24.0191 27.9665 24.8026 27 24.8026V25.3026C28.2426 25.3026 29.25 24.2953 29.25 23.0526H28.75ZM27 12.25C27.9665 12.25 28.75 13.0335 28.75 14H29.25C29.25 12.7574 28.2426 11.75 27 11.75V12.25ZM11.25 14C11.25 13.0335 12.0335 12.25 13 12.25V11.75C11.7574 11.75 10.75 12.7574 10.75 14H11.25ZM13 24.8026C12.0335 24.8026 11.25 24.0191 11.25 23.0526H10.75C10.75 24.2953 11.7574 25.3026 13 25.3026V24.8026Z" fill="url(#paint2_linear_4034_1146)" mask="url(#path-2-inside-1_4034_1146)"/>
</g>
<defs>
<filter id="filter0_i_4034_1146" x="11" y="12" width="18" height="16.2" filterUnits="userSpaceOnUse" color-interpolation-filters="sRGB">
<feFlood flood-opacity="0" result="BackgroundImageFix"/>
<feBlend mode="normal" in="SourceGraphic" in2="BackgroundImageFix" result="shape"/>
<feColorMatrix in="SourceAlpha" type="matrix" values="0 0 0 0 0 0 0 0 0 0 0 0 0 0 0 0 0 0 127 0" result="hardAlpha"/>
<feOffset dy="2"/>
<feGaussianBlur stdDeviation="2"/>
<feComposite in2="hardAlpha" operator="arithmetic" k2="-1" k3="1"/>
<feColorMatrix type="matrix" values="0 0 0 0 1 0 0 0 0 1 0 0 0 0 1 0 0 0 0.08 0"/>
<feBlend mode="normal" in2="shape" result="effect1_innerShadow"/>
</filter>
<linearGradient id="paint0_linear_4034_1146" x1="19" y1="4" x2="7.1429" y2="20.209" gradientUnits="userSpaceOnUse">
<stop offset="0.561728" stop-color="#FD366E"/>
<stop offset="1" stop-color="#FE9567"/>
</linearGradient>
<linearGradient id="paint1_linear_4034_1146" x1="9.71429" y1="9.47368" x2="30.8547" y2="26.2577" gradientUnits="userSpaceOnUse">
<stop stop-color="#FD366E" stop-opacity="0"/>
<stop offset="0.5" stop-color="#FD366E" stop-opacity="0.64"/>
<stop offset="1" stop-color="#FD366E" stop-opacity="0"/>
</linearGradient>
<linearGradient id="paint2_linear_4034_1146" x1="11" y1="17.0526" x2="34.5443" y2="21.4099" gradientUnits="userSpaceOnUse">
<stop stop-color="white" stop-opacity="0.08"/>
<stop offset="1" stop-color="white" stop-opacity="0"/>
</linearGradient>
</defs>
</svg>
