<svg width="32" height="32" viewBox="0 0 32 32" fill="none" xmlns="http://www.w3.org/2000/svg">
<path fill-rule="evenodd" clip-rule="evenodd" d="M14.5459 16.8817C16.4067 15.9172 17.6761 13.9897 17.6761 11.7692C17.6761 8.58297 15.0623 6 11.8381 6C8.61379 6 6 8.58297 6 11.7692C6 13.9774 7.25542 15.8959 9.09941 16.8656C8.87422 16.9448 8.65168 17.034 8.43238 17.1331C7.36472 17.6155 6.39462 18.3227 5.57746 19.2141C4.7603 20.1056 4.1121 21.1639 3.66986 22.3286C3.22762 23.4933 3 24.7417 3 26.0023H11.8H20.6C20.6 24.7417 20.3724 23.4933 19.9301 22.3286C19.4879 21.1639 18.8397 20.1056 18.0225 19.2141C17.2054 18.3227 16.2353 17.6155 15.1676 17.1331C14.963 17.0407 14.7556 16.9568 14.5459 16.8817Z" fill="url(#paint0_linear_1935_5080)"/>
<g filter="url(#filter1_i_1935_5080)">
<mask id="path-2-inside-1_1935_5080" fill="white">
<path fill-rule="evenodd" clip-rule="evenodd" d="M23.1955 16.867C24.8473 15.8174 25.9415 13.9852 25.9415 11.9003C25.9415 8.64167 23.2683 6 19.9708 6C16.6732 6 14 8.64167 14 11.9003C14 13.9949 15.1045 15.8346 16.7693 16.8817C16.6978 16.9116 16.6267 16.9426 16.5558 16.9746C15.4639 17.468 14.4718 18.1913 13.636 19.103C12.8003 20.0147 12.1374 21.097 11.6851 22.2882C11.2328 23.4794 11 24.7561 11 26.0455L20 26.0455H29C29 24.7561 28.7672 23.4794 28.3149 22.2882C27.8626 21.097 27.1997 20.0147 26.364 19.103C25.5282 18.1913 24.5361 17.468 23.4442 16.9746C23.3617 16.9374 23.2788 16.9015 23.1955 16.867Z"/>
</mask>
<path fill-rule="evenodd" clip-rule="evenodd" d="M23.1955 16.867C24.8473 15.8174 25.9415 13.9852 25.9415 11.9003C25.9415 8.64167 23.2683 6 19.9708 6C16.6732 6 14 8.64167 14 11.9003C14 13.9949 15.1045 15.8346 16.7693 16.8817C16.6978 16.9116 16.6267 16.9426 16.5558 16.9746C15.4639 17.468 14.4718 18.1913 13.636 19.103C12.8003 20.0147 12.1374 21.097 11.6851 22.2882C11.2328 23.4794 11 24.7561 11 26.0455L20 26.0455H29C29 24.7561 28.7672 23.4794 28.3149 22.2882C27.8626 21.097 27.1997 20.0147 26.364 19.103C25.5282 18.1913 24.5361 17.468 23.4442 16.9746C23.3617 16.9374 23.2788 16.9015 23.1955 16.867Z" fill="url(#paint1_linear_1935_5080)" fill-opacity="0.64"/>
<path d="M23.1955 16.867L23.0614 16.656L22.6555 16.9139L23.0998 17.0979L23.1955 16.867ZM16.7693 16.8817L16.866 17.1122L17.3095 16.9261L16.9024 16.67L16.7693 16.8817ZM16.5558 16.9746L16.6588 17.2025L16.5558 16.9746ZM13.636 19.103L13.8203 19.2719L13.636 19.103ZM11.6851 22.2882L11.9188 22.3769L11.6851 22.2882ZM11 26.0455H10.75V26.2955H11L11 26.0455ZM20 26.0455V25.7955V26.0455ZM29 26.0455V26.2955H29.25V26.0455H29ZM28.3149 22.2882L28.5486 22.1995L28.3149 22.2882ZM26.364 19.103L26.5483 18.934L26.364 19.103ZM23.4442 16.9746L23.3412 17.2025L23.4442 16.9746ZM25.6915 11.9003C25.6915 13.8952 24.6449 15.6499 23.0614 16.656L23.3296 17.078C25.0498 15.985 26.1915 14.0751 26.1915 11.9003H25.6915ZM19.9708 6.25C23.133 6.25 25.6915 8.78253 25.6915 11.9003H26.1915C26.1915 8.50082 23.4036 5.75 19.9708 5.75V6.25ZM14.25 11.9003C14.25 8.78253 16.8085 6.25 19.9708 6.25V5.75C16.538 5.75 13.75 8.50082 13.75 11.9003H14.25ZM16.9024 16.67C15.3065 15.6663 14.25 13.9045 14.25 11.9003H13.75C13.75 14.0853 14.9025 16.0029 16.6362 17.0933L16.9024 16.67ZM16.6726 16.6511C16.599 16.682 16.5258 16.7139 16.4529 16.7468L16.6588 17.2025C16.7275 17.1714 16.7966 17.1413 16.866 17.1122L16.6726 16.6511ZM16.4529 16.7468C15.3292 17.2546 14.3096 17.9982 13.4518 18.934L13.8203 19.2719C14.634 18.3843 15.5987 17.6815 16.6588 17.2025L16.4529 16.7468ZM13.4518 18.934C12.594 19.8698 11.9146 20.9796 11.4514 22.1995L11.9188 22.3769C12.3602 21.2145 13.0067 20.1595 13.8203 19.2719L13.4518 18.934ZM11.4514 22.1995C10.9882 23.4193 10.75 24.7262 10.75 26.0455H11.25C11.25 24.7861 11.4774 23.5394 11.9188 22.3769L11.4514 22.1995ZM11 26.2955L20 26.2955V25.7955L11 25.7955L11 26.2955ZM20 26.2955H29V25.7955H20V26.2955ZM29.25 26.0455C29.25 24.7262 29.0118 23.4193 28.5486 22.1995L28.0812 22.3769C28.5226 23.5394 28.75 24.7861 28.75 26.0455H29.25ZM28.5486 22.1995C28.0854 20.9796 27.406 19.8698 26.5483 18.934L26.1797 19.2719C26.9933 20.1595 27.6398 21.2145 28.0812 22.3769L28.5486 22.1995ZM26.5482 18.934C25.6904 17.9982 24.6708 17.2546 23.5471 16.7468L23.3412 17.2025C24.4013 17.6815 25.366 18.3843 26.1797 19.2719L26.5482 18.934ZM23.5471 16.7468C23.4622 16.7085 23.3769 16.6715 23.2912 16.636L23.0998 17.0979C23.1807 17.1314 23.2612 17.1663 23.3412 17.2025L23.5471 16.7468Z" fill="url(#paint2_linear_1935_5080)" mask="url(#path-2-inside-1_1935_5080)"/>
</g>
<defs>
<filter id="filter1_i_1935_5080" x="11" y="6" width="18.2" height="22" filterUnits="userSpaceOnUse" color-interpolation-filters="sRGB">
<feFlood flood-opacity="0" result="BackgroundImageFix"/>
<feBlend mode="normal" in="SourceGraphic" in2="BackgroundImageFix" result="shape"/>
<feColorMatrix in="SourceAlpha" type="matrix" values="0 0 0 0 0 0 0 0 0 0 0 0 0 0 0 0 0 0 127 0" result="hardAlpha"/>
<feOffset dy="2"/>
<feGaussianBlur stdDeviation="2"/>
<feComposite in2="hardAlpha" operator="arithmetic" k2="-1" k3="1"/>
<feColorMatrix type="matrix" values="0 0 0 0 1 0 0 0 0 1 0 0 0 0 1 0 0 0 0.08 0"/>
<feBlend mode="normal" in2="shape" result="effect1_innerShadow"/>
</filter>
<linearGradient id="paint0_linear_1935_5080" x1="16.3008" y1="7.5" x2="3.2575" y2="25.9694" gradientUnits="userSpaceOnUse">
<stop offset="0.546815" stop-color="#FD366E"/>
<stop offset="1" stop-color="#FE9567"/>
</linearGradient>
<linearGradient id="paint1_linear_1935_5080" x1="13.1462" y1="6" x2="28.0576" y2="27.9801" gradientUnits="userSpaceOnUse">
<stop stop-color="#FD366E" stop-opacity="0"/>
<stop offset="0.484375" stop-color="#FD366E" stop-opacity="0.64"/>
<stop offset="1" stop-color="#FD366E" stop-opacity="0"/>
</linearGradient>
<linearGradient id="paint2_linear_1935_5080" x1="11.138" y1="17.4677" x2="29.1275" y2="19.0616" gradientUnits="userSpaceOnUse">
<stop stop-color="white" stop-opacity="0.08"/>
<stop offset="1" stop-color="white" stop-opacity="0"/>
</linearGradient>
</defs>
</svg>
