<svg width="32" height="32" viewBox="0 0 32 32" fill="none" xmlns="http://www.w3.org/2000/svg">
<g clip-path="url(#clip0_6299_22810)">
<mask id="mask0_6299_22810" style="mask-type:alpha" maskUnits="userSpaceOnUse" x="1" y="1" width="31" height="31">
<path d="M15 17.5L20 32H1V1H31.5V21L24 18.375V17.5H21.5H15Z" fill="#D8D8DB"/>
</mask>
<g mask="url(#mask0_6299_22810)">
<g filter="url(#filter0_i_6299_22810)">
<path fill-rule="evenodd" clip-rule="evenodd" d="M30.5 16C30.5 24.0081 24.0081 30.5 16 30.5C7.99187 30.5 1.5 24.0081 1.5 16C1.5 7.99187 7.99187 1.5 16 1.5C24.0081 1.5 30.5 7.99187 30.5 16ZM13.1193 7.4362C14.1539 5.19452 15.2809 4.5 16 4.5C16.7191 4.5 17.8461 5.19452 18.8807 7.4362C19.7113 9.23587 20.3012 11.6963 20.4583 14.5H11.5417C11.6988 11.6963 12.2887 9.23587 13.1193 7.4362ZM8.53753 14.5C8.69733 11.3245 9.36061 8.42112 10.3954 6.17902C10.4422 6.07777 10.4901 5.97692 10.5394 5.87664C7.36095 7.59472 5.08334 10.766 4.59694 14.5H8.53753ZM4.59694 17.5H8.53753C8.69733 20.6755 9.36061 23.5789 10.3954 25.821C10.4422 25.9222 10.4901 26.0231 10.5394 26.1234C7.36095 24.4053 5.08334 21.234 4.59694 17.5ZM11.5417 17.5L20.4583 17.5C20.3012 20.3037 19.7113 22.7641 18.8807 24.5638C17.8461 26.8055 16.7191 27.5 16 27.5C15.2809 27.5 14.1539 26.8055 13.1193 24.5638C12.2887 22.7641 11.6988 20.3037 11.5417 17.5ZM23.4625 17.5C23.3027 20.6755 22.6394 23.5789 21.6046 25.821C21.5578 25.9222 21.5099 26.0231 21.4606 26.1234C24.639 24.4053 26.9167 21.234 27.4031 17.5H23.4625ZM27.4031 14.5C26.9167 10.766 24.6391 7.59472 21.4606 5.87664C21.5099 5.97692 21.5578 6.07777 21.6046 6.17902C22.6394 8.42112 23.3027 11.3245 23.4625 14.5H27.4031Z" fill="url(#paint0_linear_6299_22810)" fill-opacity="0.64"/>
<path d="M16 1.625C23.9391 1.625 30.375 8.06091 30.375 16C30.375 23.9391 23.9391 30.375 16 30.375C8.06091 30.375 1.625 23.9391 1.625 16C1.625 8.06091 8.06091 1.625 16 1.625ZM11.417 17.5068C11.5748 20.3226 12.1673 22.7993 13.0059 24.6162C14.0453 26.8684 15.2036 27.625 16 27.625C16.7964 27.625 17.9547 26.8684 18.9941 24.6162C19.8327 22.7993 20.4252 20.3226 20.583 17.5068L20.5908 17.375H11.4092L11.417 17.5068ZM4.47266 17.5166C4.96449 21.2913 7.26707 24.4968 10.4795 26.2334L10.8242 26.4189L10.6514 26.0684C10.6026 25.969 10.5551 25.8689 10.5088 25.7686C9.48211 23.544 8.82133 20.6572 8.66211 17.4941L8.65625 17.375H4.45508L4.47266 17.5166ZM23.3379 17.4941C23.1787 20.6572 22.5179 23.544 21.4912 25.7686C21.4449 25.8689 21.3974 25.969 21.3486 26.0684L21.1758 26.4189L21.5205 26.2334C24.7329 24.4968 27.0355 21.2913 27.5273 17.5166L27.5449 17.375H23.3438L23.3379 17.4941ZM10.4795 5.7666C7.26707 7.50319 4.96449 10.7087 4.47266 14.4834L4.45508 14.625H8.65625L8.66211 14.5059C8.82133 11.3428 9.48211 8.45596 10.5088 6.23145C10.5551 6.13108 10.6026 6.03101 10.6514 5.93164L10.8242 5.58105L10.4795 5.7666ZM16 4.375C15.2036 4.375 14.0453 5.13162 13.0059 7.38379C12.1673 9.20073 11.5748 11.6774 11.417 14.4932L11.4092 14.625H20.5908L20.583 14.4932C20.4252 11.6774 19.8327 9.20073 18.9941 7.38379C17.9547 5.13162 16.7964 4.375 16 4.375ZM21.3486 5.93164C21.3974 6.03101 21.4449 6.13108 21.4912 6.23145C22.5179 8.45596 23.1787 11.3428 23.3379 14.5059L23.3438 14.625H27.5449L27.5273 14.4834C27.0355 10.7087 24.7329 7.50319 21.5205 5.7666L21.1758 5.58105L21.3486 5.93164Z" stroke="url(#paint1_linear_6299_22810)" stroke-width="0.25" stroke-linecap="round"/>
</g>
</g>
<path d="M19.081 18.791C18.2745 18.4844 17.4844 19.2745 17.791 20.081L22.0823 31.3715C22.4154 32.2477 23.6625 32.2254 23.964 31.3379L25.4215 27.0467C25.5214 26.7525 25.7525 26.5214 26.0467 26.4215L30.3379 24.964C31.2254 24.6625 31.2477 23.4154 30.3715 23.0823L19.081 18.791Z" fill="url(#paint2_linear_6299_22810)"/>
</g>
<defs>
<filter id="filter0_i_6299_22810" x="1.5" y="1.5" width="29" height="29.2" filterUnits="userSpaceOnUse" color-interpolation-filters="sRGB">
<feFlood flood-opacity="0" result="BackgroundImageFix"/>
<feBlend mode="normal" in="SourceGraphic" in2="BackgroundImageFix" result="shape"/>
<feColorMatrix in="SourceAlpha" type="matrix" values="0 0 0 0 0 0 0 0 0 0 0 0 0 0 0 0 0 0 127 0" result="hardAlpha"/>
<feOffset dy="2"/>
<feGaussianBlur stdDeviation="2"/>
<feComposite in2="hardAlpha" operator="arithmetic" k2="-1" k3="1"/>
<feColorMatrix type="matrix" values="0 0 0 0 1 0 0 0 0 1 0 0 0 0 1 0 0 0 0.08 0"/>
<feBlend mode="normal" in2="shape" result="effect1_innerShadow"/>
</filter>
<linearGradient id="paint0_linear_6299_22810" x1="-4.02381" y1="-0.598685" x2="17.5993" y2="35.6134" gradientUnits="userSpaceOnUse">
<stop stop-color="#FD366E" stop-opacity="0"/>
<stop offset="0.5" stop-color="#FD366E" stop-opacity="0.64"/>
<stop offset="1" stop-color="#FD366E" stop-opacity="0"/>
</linearGradient>
<linearGradient id="paint1_linear_6299_22810" x1="1.5" y1="10.6579" x2="39.6979" y2="16.9415" gradientUnits="userSpaceOnUse">
<stop stop-color="white" stop-opacity="0.08"/>
<stop offset="1" stop-color="white" stop-opacity="0"/>
</linearGradient>
<linearGradient id="paint2_linear_6299_22810" x1="17.8856" y1="17" x2="30.8345" y2="32.7348" gradientUnits="userSpaceOnUse">
<stop offset="0.406961" stop-color="#FD366E"/>
<stop offset="1" stop-color="#FE9567"/>
</linearGradient>
<clipPath id="clip0_6299_22810">
<rect width="32" height="32" fill="white"/>
</clipPath>
</defs>
</svg>
