<svg width="32" height="32" viewBox="0 0 32 32" fill="none" xmlns="http://www.w3.org/2000/svg">
<g filter="url(#filter0_i_fund)">
<path d="M6 12.5Q6 11 7.3 11.8L14.7 16.2Q16 17 16 18.5V27.5Q16 29 14.7 28.2L7.3 23.8Q6 23 6 21.5Z" fill="url(#paint1_linear_fund)" fill-opacity="0.64"/>
<path d="M6.13 12.5Q6.13 11.15 7.35 11.85L14.65 16.15Q15.87 16.95 15.87 18.45V27.45Q15.87 28.85 14.65 28.15L7.35 23.75Q6.13 22.9 6.13 21.5Z" stroke="url(#paint2_linear_fund)" stroke-width="0.25"/>
</g>
<g filter="url(#filter2_i_fund)">
<path d="M26 12.5Q26 11 24.7 11.8L17.3 16.2Q16 17 16 18.5V27.5Q16 29 17.3 28.2L24.7 23.8Q26 23 26 21.5Z" fill="url(#paint3_linear_fund)" fill-opacity="0.64"/>
<path d="M25.87 12.5Q25.87 11.15 24.65 11.85L17.35 16.15Q16.13 16.95 16.13 18.45V27.45Q16.13 28.85 17.35 28.15L24.65 23.75Q25.87 22.9 25.87 21.5Z" stroke="url(#paint4_linear_fund)" stroke-width="0.25"/>
</g>
<path d="M14.7 5.8Q16 5 17.3 5.8L24.7 10.2Q26 11 24.7 11.8L17.3 16.2Q16 17 14.7 16.2L7.3 11.8Q6 11 7.3 10.2Z" fill="url(#paint0_linear_fund)"/>
<defs>
<filter id="filter0_i_fund" x="6" y="11" width="10.1" height="18.2" filterUnits="userSpaceOnUse" color-interpolation-filters="sRGB">
<feFlood flood-opacity="0" result="BackgroundImageFix"/>
<feBlend mode="normal" in="SourceGraphic" in2="BackgroundImageFix" result="shape"/>
<feColorMatrix in="SourceAlpha" type="matrix" values="0 0 0 0 0 0 0 0 0 0 0 0 0 0 0 0 0 0 127 0" result="hardAlpha"/>
<feOffset dy="2"/>
<feGaussianBlur stdDeviation="2"/>
<feComposite in2="hardAlpha" operator="arithmetic" k2="-1" k3="1"/>
<feColorMatrix type="matrix" values="0 0 0 0 1 0 0 0 0 1 0 0 0 0 1 0 0 0 0.08 0"/>
<feBlend mode="normal" in2="shape" result="effect1_innerShadow"/>
</filter>
<filter id="filter2_i_fund" x="16" y="11" width="10.1" height="18.2" filterUnits="userSpaceOnUse" color-interpolation-filters="sRGB">
<feFlood flood-opacity="0" result="BackgroundImageFix"/>
<feBlend mode="normal" in="SourceGraphic" in2="BackgroundImageFix" result="shape"/>
<feColorMatrix in="SourceAlpha" type="matrix" values="0 0 0 0 0 0 0 0 0 0 0 0 0 0 0 0 0 0 127 0" result="hardAlpha"/>
<feOffset dy="2"/>
<feGaussianBlur stdDeviation="2"/>
<feComposite in2="hardAlpha" operator="arithmetic" k2="-1" k3="1"/>
<feColorMatrix type="matrix" values="0 0 0 0 1 0 0 0 0 1 0 0 0 0 1 0 0 0 0.08 0"/>
<feBlend mode="normal" in2="shape" result="effect1_innerShadow"/>
</filter>
<linearGradient id="paint0_linear_fund" x1="14" y1="5" x2="20" y2="18" gradientUnits="userSpaceOnUse">
<stop offset="0.36" stop-color="#FD366E"/>
<stop offset="1" stop-color="#FE9567"/>
</linearGradient>
<linearGradient id="paint1_linear_fund" x1="-2" y1="7" x2="16" y2="33" gradientUnits="userSpaceOnUse">
<stop stop-color="#FD366E" stop-opacity="0"/>
<stop offset="0.484375" stop-color="#FD366E" stop-opacity="0.64"/>
<stop offset="1" stop-color="#FD366E" stop-opacity="0"/>
</linearGradient>
<linearGradient id="paint2_linear_fund" x1="6" y1="20" x2="16" y2="20" gradientUnits="userSpaceOnUse">
<stop stop-color="white" stop-opacity="0.08"/>
<stop offset="1" stop-color="white" stop-opacity="0"/>
</linearGradient>
<linearGradient id="paint3_linear_fund" x1="20" y1="7" x2="34" y2="33" gradientUnits="userSpaceOnUse">
<stop stop-color="#FD366E" stop-opacity="0"/>
<stop offset="0.484375" stop-color="#FD366E" stop-opacity="0.64"/>
<stop offset="1" stop-color="#FD366E" stop-opacity="0"/>
</linearGradient>
<linearGradient id="paint4_linear_fund" x1="16" y1="20" x2="26" y2="20" gradientUnits="userSpaceOnUse">
<stop stop-color="white" stop-opacity="0.08"/>
<stop offset="1" stop-color="white" stop-opacity="0"/>
</linearGradient>
</defs>
</svg>
