<svg width="32" height="32" viewBox="0 0 32 32" fill="none" xmlns="http://www.w3.org/2000/svg">
<g filter="url(#filter0_i_1935_5088)">
<path d="M6.06982 18.6344C6.38369 17.9697 6.54062 17.6374 6.78128 17.3941C6.99405 17.1791 7.25283 17.0151 7.53814 16.9145C7.86085 16.8008 8.22837 16.8008 8.96342 16.8008L23.0413 16.8008C23.7763 16.8008 24.1438 16.8008 24.4665 16.9145C24.7519 17.0151 25.0106 17.1791 25.2234 17.3941C25.4641 17.6374 25.621 17.9697 25.9349 18.6344L27.446 21.8344C28.1623 23.3513 28.5205 24.1098 28.4198 24.7242C28.3319 25.2609 28.0291 25.7387 27.5813 26.0474C27.0687 26.4008 26.2299 26.4008 24.5524 26.4008L7.4523 26.4008C5.77474 26.4008 4.93596 26.4008 4.42336 26.0474C3.97558 25.7387 3.67284 25.2609 3.58489 24.7242C3.48421 24.1098 3.84238 23.3513 4.55871 21.8344L6.06982 18.6344Z" fill="url(#paint0_linear_1935_5088)" fill-opacity="0.64"/>
<path d="M8.96387 16.9258L23.041 16.9258C23.7852 16.9258 24.1271 16.9274 24.4248 17.0322C24.6923 17.1265 24.9353 17.2808 25.1348 17.4824C25.3566 17.7068 25.5046 18.0147 25.8223 18.6875L27.333 21.8877C27.6921 22.6482 27.958 23.2108 28.1221 23.6602C28.2862 24.1096 28.342 24.4288 28.2969 24.7041C28.2144 25.2071 27.9303 25.6549 27.5107 25.9443C27.2811 26.1027 26.9686 26.1889 26.4922 26.2324C26.0158 26.2759 25.3937 26.2754 24.5527 26.2754L7.45215 26.2754C6.61124 26.2754 5.98905 26.2759 5.5127 26.2324C5.03624 26.1889 4.7238 26.1027 4.49414 25.9443C4.07447 25.6549 3.79047 25.2072 3.70801 24.7041C3.6629 24.4288 3.71873 24.1096 3.88281 23.6602C4.0469 23.2108 4.31277 22.6481 4.67188 21.8877L6.18262 18.6875C6.50033 18.0147 6.64822 17.7068 6.87012 17.4824C7.06959 17.2808 7.3126 17.1265 7.58008 17.0322C7.8777 16.9274 8.21985 16.9258 8.96387 16.9258Z" stroke="url(#paint1_linear_1935_5088)" stroke-width="0.25"/>
</g>
<g filter="url(#filter1_i_1935_5088)">
<path d="M6.06982 12.234C6.38369 11.5693 6.54062 11.237 6.78128 10.9937C6.99405 10.7787 7.25283 10.6147 7.53814 10.5141C7.86085 10.4004 8.22837 10.4004 8.96342 10.4004L23.0413 10.4004C23.7763 10.4004 24.1438 10.4004 24.4665 10.5141C24.7519 10.6147 25.0106 10.7787 25.2234 10.9937C25.4641 11.237 25.621 11.5693 25.9349 12.234L27.446 15.434C28.1623 16.9509 28.5205 17.7094 28.4198 18.3238C28.3319 18.8605 28.0291 19.3383 27.5813 19.647C27.0687 20.0004 26.2299 20.0004 24.5524 20.0004L7.4523 20.0004C5.77474 20.0004 4.93596 20.0004 4.42336 19.647C3.97558 19.3383 3.67284 18.8605 3.58489 18.3238C3.48421 17.7094 3.84238 16.9509 4.55871 15.434L6.06982 12.234Z" fill="url(#paint2_linear_1935_5088)" fill-opacity="0.64"/>
<path d="M8.96387 10.5254L23.041 10.5254C23.7852 10.5254 24.1271 10.527 24.4248 10.6318C24.6923 10.7261 24.9353 10.8804 25.1348 11.082C25.3566 11.3064 25.5046 11.6143 25.8223 12.2871L27.333 15.4873C27.6921 16.2478 27.958 16.8104 28.1221 17.2598C28.2862 17.7092 28.342 18.0284 28.2969 18.3037C28.2144 18.8067 27.9303 19.2545 27.5107 19.5439C27.2811 19.7023 26.9686 19.7885 26.4922 19.832C26.0158 19.8755 25.3937 19.875 24.5527 19.875L7.45215 19.875C6.61124 19.875 5.98905 19.8755 5.5127 19.832C5.03624 19.7885 4.7238 19.7023 4.49414 19.5439C4.07447 19.2545 3.79047 18.8068 3.70801 18.3037C3.6629 18.0284 3.71873 17.7092 3.88281 17.2598C4.0469 16.8104 4.31277 16.2478 4.67188 15.4873L6.18262 12.2871C6.50033 11.6143 6.64822 11.3064 6.87012 11.082C7.06959 10.8804 7.3126 10.7261 7.58008 10.6318C7.8777 10.527 8.21985 10.5254 8.96387 10.5254Z" stroke="url(#paint3_linear_1935_5088)" stroke-width="0.25"/>
</g>
<path d="M6.06982 5.83358C6.38369 5.16892 6.54062 4.83658 6.78128 4.59335C6.99405 4.3783 7.25283 4.21432 7.53814 4.11375C7.86085 4 8.22837 4 8.96342 4L23.0413 4C23.7763 4 24.1438 4 24.4665 4.11375C24.7519 4.21432 25.0106 4.3783 25.2234 4.59335C25.4641 4.83658 25.621 5.16892 25.9349 5.83358L27.446 9.03358C28.1623 10.5505 28.5205 11.309 28.4198 11.9234C28.3319 12.4601 28.0291 12.9379 27.5813 13.2466C27.0687 13.6 26.2299 13.6 24.5524 13.6L7.4523 13.6C5.77474 13.6 4.93596 13.6 4.42336 13.2466C3.97558 12.9379 3.67284 12.4601 3.58489 11.9234C3.48421 11.309 3.84238 10.5505 4.55871 9.03358L6.06982 5.83358Z" fill="url(#paint4_linear_1935_5088)"/>
<defs>
<filter id="filter0_i_1935_5088" x="3.5" y="16.8" width="25" height="10.6" filterUnits="userSpaceOnUse" color-interpolation-filters="sRGB">
<feFlood flood-opacity="0" result="BackgroundImageFix"/>
<feBlend mode="normal" in="SourceGraphic" in2="BackgroundImageFix" result="shape"/>
<feColorMatrix in="SourceAlpha" type="matrix" values="0 0 0 0 0 0 0 0 0 0 0 0 0 0 0 0 0 0 127 0" result="hardAlpha"/>
<feOffset dy="2"/>
<feGaussianBlur stdDeviation="2"/>
<feComposite in2="hardAlpha" operator="arithmetic" k2="-1" k3="1"/>
<feColorMatrix type="matrix" values="0 0 0 0 1 0 0 0 0 1 0 0 0 0 1 0 0 0 0.08 0"/>
<feBlend mode="normal" in2="shape" result="effect1_innerShadow"/>
</filter>
<filter id="filter1_i_1935_5088" x="3.5" y="10.4" width="25" height="10.6" filterUnits="userSpaceOnUse" color-interpolation-filters="sRGB">
<feFlood flood-opacity="0" result="BackgroundImageFix"/>
<feBlend mode="normal" in="SourceGraphic" in2="BackgroundImageFix" result="shape"/>
<feColorMatrix in="SourceAlpha" type="matrix" values="0 0 0 0 0 0 0 0 0 0 0 0 0 0 0 0 0 0 127 0" result="hardAlpha"/>
<feOffset dy="2"/>
<feGaussianBlur stdDeviation="2"/>
<feComposite in2="hardAlpha" operator="arithmetic" k2="-1" k3="1"/>
<feColorMatrix type="matrix" values="0 0 0 0 1 0 0 0 0 1 0 0 0 0 1 0 0 0 0.08 0"/>
<feBlend mode="normal" in2="shape" result="effect1_innerShadow"/>
</filter>
<linearGradient id="paint0_linear_1935_5088" x1="5.64542" y1="16.8008" x2="6.51801" y2="35.1006" gradientUnits="userSpaceOnUse">
<stop stop-color="#FD366E" stop-opacity="0"/>
<stop offset="0.484375" stop-color="#FD366E" stop-opacity="0.64"/>
<stop offset="1" stop-color="#FD366E" stop-opacity="0"/>
</linearGradient>
<linearGradient id="paint1_linear_1935_5088" x1="2.30302" y1="22.1823" x2="27.6382" y2="29.4107" gradientUnits="userSpaceOnUse">
<stop stop-color="white" stop-opacity="0.08"/>
<stop offset="1" stop-color="white" stop-opacity="0"/>
</linearGradient>
<linearGradient id="paint2_linear_1935_5088" x1="5.64542" y1="10.4004" x2="7.29674" y2="28.0828" gradientUnits="userSpaceOnUse">
<stop stop-color="#FD366E" stop-opacity="0"/>
<stop offset="0.484375" stop-color="#FD366E" stop-opacity="0.64"/>
<stop offset="1" stop-color="#FD366E" stop-opacity="0"/>
</linearGradient>
<linearGradient id="paint3_linear_1935_5088" x1="2.30302" y1="15.7819" x2="27.6382" y2="23.0103" gradientUnits="userSpaceOnUse">
<stop stop-color="white" stop-opacity="0.08"/>
<stop offset="1" stop-color="white" stop-opacity="0"/>
</linearGradient>
<linearGradient id="paint4_linear_1935_5088" x1="22.5" y1="4" x2="22.5" y2="13.5" gradientUnits="userSpaceOnUse">
<stop stop-color="#FD366E" stop-opacity="0.32"/>
<stop offset="0.423207" stop-color="#FD366E"/>
<stop offset="1" stop-color="#FD5E6B"/>
</linearGradient>
</defs>
</svg>
